# xmcd
#
# Track frame offsets:
#	150
#	18029
#	35910
#	53402
#	72060
#	85120
#	103532
#	118157
#	135837
#	153804
#	172127
#	187052
#	201817
#	213870
#	226980
#	237998
#	255780
#	273148
#	287035
#	302193
#
# Disc length: 4266 seconds
#
# Revision: 0
# Processed by: cddbd v1.5.2PL0 Copyright (c) Steve Scherf et al.
# Submitted via: dBpowerAMP V4.0
#
DISCID=0610a814
DTITLE=Various Artist - Greatest Hits
DYEAR=1900
DGENRE=Country
TTITLE0=Alan Jackson - Chattahoochee
TTITLE1=Shania Twain - Don´t
TTITLE2=Alan Jackson - Gone Crazy
TTITLE3=Shania Twain - Any Man of Mine
TTITLE4=Alan Jackson - Don´t rock the Jukebox
TTITLE5=Shania Twain - Forever and for always
TTITLE6=Alan Jackson - Summertime Blues
TTITLE7=Shania Twain - Man I fell like a woman
TTITLE8=Alan Jackson - ILL go on Loving you
TTITLE9=Shania Twain - I´m gonna getcha good
TTITLE10=Alan Jackson - Idon´t need the booge 
TTITLE11=Shania Twain - Youre Still the ond
TTITLE12=Alan Jackson - Little Bitty
TTITLE13=Shania Twain - UP
TTITLE14=Alan Jackson - Shes got the Rhythm
TTITLE15=Shania Twain - From this moment on
TTITLE16=Alan Jackson - Livin on Love
TTITLE17=Shania Twain - No one needs toknow
TTITLE18=Alan Jackson - Thank God for the radio
TTITLE19=Shania Twain - The womam in me
EXTD=
EXTT0=
EXTT1=
EXTT2=
EXTT3=
EXTT4=
EXTT5=
EXTT6=
EXTT7=
EXTT8=
EXTT9=
EXTT10=
EXTT11=
EXTT12=
EXTT13=
EXTT14=
EXTT15=
EXTT16=
EXTT17=
EXTT18=
EXTT19=
PLAYORDER=
